<svg width="28" height="31" viewBox="0 0 28 31" fill="none" xmlns="http://www.w3.org/2000/svg">
<path fill-rule="evenodd" clip-rule="evenodd" d="M20.0431 5.69641C20.0431 3.9785 21.3031 2.5835 22.8548 2.5835C24.4065 2.5835 25.6665 3.9785 25.6665 5.69641C25.6665 7.41433 24.4065 8.80933 22.8548 8.80933C21.3031 8.80933 20.0431 7.41433 20.0431 5.69641ZM15.5513 19.0643L18.923 14.2476L18.8763 14.2735C19.063 13.9893 19.098 13.6276 18.9697 13.3047C18.8425 12.9818 18.5613 12.7622 18.2592 12.7364C17.943 12.6976 17.6292 12.8526 17.4413 13.1368L14.6192 17.1797L11.3863 14.3639C11.188 14.196 10.9547 14.1301 10.7213 14.1572C10.4892 14.196 10.2792 14.3368 10.138 14.5434L6.68584 19.5176L6.61467 19.6339C6.41634 20.0459 6.50967 20.5755 6.85967 20.861C7.02301 20.9772 7.19801 21.0547 7.39634 21.0547C7.66584 21.0676 7.92134 20.9113 8.08467 20.6672L11.013 16.4938L14.338 19.2593L14.443 19.3355C14.8163 19.5551 15.283 19.4531 15.5513 19.0643ZM18.0247 4.88305C17.978 5.20597 17.9547 5.52888 17.9547 5.8518C17.9547 8.75805 20.078 11.1076 22.6913 11.1076C22.983 11.1076 23.263 11.0701 23.5547 11.0185V21.4409C23.5547 25.821 21.2213 28.4172 17.2547 28.4172H8.63417C4.66634 28.4172 2.33301 25.821 2.33301 21.4409V11.8839C2.33301 7.49222 4.66634 4.88305 8.63417 4.88305H18.0247Z" fill="#BCBCBC"/>
</svg>
