<svg width="35" height="34" viewBox="0 0 35 34" fill="none" xmlns="http://www.w3.org/2000/svg">
<path d="M32.875 16.1667C32.8809 18.3665 32.3541 20.5365 31.3375 22.5C30.1322 24.853 28.2792 26.832 25.9861 28.2155C23.693 29.599 21.0503 30.3324 18.3542 30.3334C16.0994 30.3391 13.8751 29.8252 11.8625 28.8334L2.125 32L5.37083 22.5C4.35426 20.5365 3.82745 18.3665 3.83333 16.1667C3.83438 13.5363 4.58605 10.9581 6.00415 8.72096C7.42224 6.4838 9.45077 4.67599 11.8625 3.50005C13.8751 2.50827 16.0994 1.99431 18.3542 2.00005H19.2083C22.7691 2.1917 26.1323 3.65798 28.6539 6.11815C31.1756 8.57831 32.6786 11.8595 32.875 15.3334V16.1667Z" stroke="#BCBCBC" stroke-width="4" stroke-linecap="round" stroke-linejoin="round"/>
</svg>
