<svg width="30" height="27" viewBox="0 0 30 27" fill="none" xmlns="http://www.w3.org/2000/svg">
<g filter="url(#filter0_d_10_875)">
<path fill-rule="evenodd" clip-rule="evenodd" d="M14.9998 8.4324C14.3268 8.4324 13.6953 8.67759 13.2087 9.13853C12.7325 9.58967 12.4737 10.1879 12.484 10.8058V10.8156C12.484 11.4531 12.7428 12.0513 13.2191 12.5024C13.6953 12.9536 14.3268 13.1988 14.9998 13.1988C16.3871 13.1988 17.5052 12.1298 17.5155 10.8156C17.5155 10.1781 17.2567 9.57986 16.7805 9.12873C16.3042 8.67759 15.6727 8.4324 14.9998 8.4324ZM20.808 8.50105C20.2904 8.50105 19.8762 8.10876 19.8762 7.61839C19.8762 7.12802 20.2904 6.72592 20.808 6.72592C21.3256 6.72592 21.7501 7.12802 21.7501 7.61839C21.7501 8.10876 21.3256 8.50105 20.808 8.50105ZM17.8678 13.542C17.1327 14.2383 16.1182 14.6699 15 14.6699C13.913 14.6699 12.8984 14.2678 12.1219 13.542C11.3558 12.8065 10.9313 11.8453 10.9313 10.8156C10.921 9.79562 11.3455 8.8345 12.1116 8.09895C12.888 7.3634 13.913 6.9613 15 6.9613C16.0871 6.9613 17.112 7.3634 17.8782 8.08914C18.6443 8.82469 19.0687 9.79562 19.0687 10.8156C19.0584 11.8846 18.6029 12.8457 17.8678 13.542ZM20.839 3.97006C20.7458 3.97006 20.6733 3.92103 20.6319 3.85238L20.5284 3.63662C20.2489 3.0776 19.9279 2.43032 19.7312 2.05764C19.255 1.17498 18.4371 0.684612 17.4329 0.674805H12.5566C11.5524 0.684612 10.7449 1.17498 10.2686 2.05764C10.0616 2.44993 9.70956 3.15606 9.41968 3.73469L9.35756 3.85238C9.3265 3.93084 9.24368 3.97006 9.16085 3.97006C6.6658 3.97006 4.64697 5.8923 4.64697 8.24606V14.0716C4.64697 16.4254 6.6658 18.3476 9.16085 18.3476H20.839C23.3237 18.3476 25.3529 16.4254 25.3529 14.0716V8.24606C25.3529 5.8923 23.3237 3.97006 20.839 3.97006Z" fill="white"/>
</g>
<defs>
<filter id="filter0_d_10_875" x="0.646973" y="0.674805" width="28.7059" height="25.6729" filterUnits="userSpaceOnUse" color-interpolation-filters="sRGB">
<feFlood flood-opacity="0" result="BackgroundImageFix"/>
<feColorMatrix in="SourceAlpha" type="matrix" values="0 0 0 0 0 0 0 0 0 0 0 0 0 0 0 0 0 0 127 0" result="hardAlpha"/>
<feOffset dy="4"/>
<feGaussianBlur stdDeviation="2"/>
<feComposite in2="hardAlpha" operator="out"/>
<feColorMatrix type="matrix" values="0 0 0 0 0 0 0 0 0 0 0 0 0 0 0 0 0 0 0.25 0"/>
<feBlend mode="normal" in2="BackgroundImageFix" result="effect1_dropShadow_10_875"/>
<feBlend mode="normal" in="SourceGraphic" in2="effect1_dropShadow_10_875" result="shape"/>
</filter>
</defs>
</svg>
