<svg width="28" height="31" viewBox="0 0 28 31" fill="none" xmlns="http://www.w3.org/2000/svg">
<path fill-rule="evenodd" clip-rule="evenodd" d="M19.1548 8.35725H19.3938C22.5344 8.35725 25.0834 11.2635 25.0834 14.8285V21.9585C25.0834 25.5235 22.5344 28.4168 19.3938 28.4168H8.60628C5.46563 28.4168 2.91669 25.5235 2.91669 21.9585V14.8285C2.91669 11.2635 5.46563 8.35725 8.60628 8.35725H8.84525C8.868 6.80725 9.40283 5.36058 10.3701 4.27558C11.3487 3.17766 12.6004 2.62225 14.0114 2.5835C16.8334 2.5835 19.1207 5.16683 19.1548 8.35725ZM11.5649 5.65766C10.9276 6.381 10.5749 7.33683 10.5521 8.35725H17.4479C17.4138 6.23891 15.889 4.521 14.0114 4.521C13.1352 4.521 12.2249 4.92141 11.5649 5.65766ZM18.3241 13.3302C18.802 13.3302 19.1776 12.891 19.1776 12.3614V10.8631C19.1776 10.3335 18.802 9.89433 18.3241 9.89433C17.8576 9.89433 17.4707 10.3335 17.4707 10.8631V12.3614C17.4707 12.891 17.8576 13.3302 18.3241 13.3302ZM10.427 12.3614C10.427 12.891 10.0514 13.3302 9.57351 13.3302C9.10697 13.3302 8.72007 12.891 8.72007 12.3614V10.8631C8.72007 10.3335 9.10697 9.89433 9.57351 9.89433C10.0514 9.89433 10.427 10.3335 10.427 10.8631V12.3614Z" fill="#BCBCBC"/>
</svg>
