<svg width="28" height="31" viewBox="0 0 28 31" fill="none" xmlns="http://www.w3.org/2000/svg">
<path d="M10.6573 26.8324V22.8828C10.6573 21.8746 11.4009 21.0573 12.3182 21.0573H15.6714C16.1119 21.0573 16.5344 21.2496 16.8459 21.592C17.1573 21.9343 17.3323 22.3987 17.3323 22.8828V26.8324C17.3296 27.2516 17.4791 27.6546 17.7478 27.9521C18.0165 28.2495 18.3821 28.4168 18.7635 28.4168H21.0512C22.1196 28.4199 23.1452 27.9555 23.9017 27.1262C24.6582 26.2969 25.0834 25.1708 25.0834 23.9965V12.7449C25.0833 11.7963 24.7008 10.8965 24.0387 10.2879L16.2564 3.45649C14.9026 2.25872 12.963 2.29739 11.6496 3.54834L4.04487 10.2879C3.35155 10.8785 2.93716 11.781 2.91669 12.7449V23.985C2.91669 26.4326 4.72197 28.4168 6.94889 28.4168H9.18436C9.97645 28.4168 10.6202 27.7144 10.6259 26.8439L10.6573 26.8324Z" fill="#0373F3"/>
</svg>
