<svg width="11" height="30" viewBox="0 0 11 30" fill="none" xmlns="http://www.w3.org/2000/svg">
<path d="M5.5 9.47447C7.70189 9.47447 9.5 7.69655 9.5 5.48724C9.5 3.27792 7.70189 1.5 5.5 1.5C3.29811 1.5 1.5 3.27792 1.5 5.48724C1.5 7.69655 3.29811 9.47447 5.5 9.47447Z" fill="white" stroke="#114E94" stroke-width="3"/>
<path d="M5.5 18.6556C7.70189 18.6556 9.5 16.8777 9.5 14.6684C9.5 12.4591 7.70189 10.6812 5.5 10.6812C3.29811 10.6812 1.5 12.4591 1.5 14.6684C1.5 16.8777 3.29811 18.6556 5.5 18.6556Z" fill="white" stroke="#114E94" stroke-width="3"/>
<path d="M5.5 27.8368C7.70189 27.8368 9.5 26.0589 9.5 23.8495C9.5 21.6402 7.70189 19.8623 5.5 19.8623C3.29811 19.8623 1.5 21.6402 1.5 23.8495C1.5 26.0589 3.29811 27.8368 5.5 27.8368Z" fill="white" stroke="#114E94" stroke-width="3"/>
</svg>
